<svg width="64" height="64" viewBox="0 0 64 64" fill="none" xmlns="http://www.w3.org/2000/svg">
<rect width="64" height="64" rx="32" fill="white"/>
<rect width="64" height="64" rx="32" fill="url(#paint0_linear_4885_6)"/>
<path d="M37.0176 36.5121C36.9954 36.4943 36.9758 36.4756 36.9506 36.4623C36.8455 36.4067 36.7218 36.3739 36.605 36.3508L30.9923 35.2399L30.6927 35.19C30.4008 35.1172 30.0823 35.1508 29.8929 35.1936C29.7927 35.2163 29.6924 35.2424 29.5942 35.2729C29.5312 35.2926 29.4624 35.2993 29.3996 35.3195C28.7688 35.5224 28.0176 35.8476 27.4474 36.0374C26.5486 36.3863 25.6 36.785 24.7013 36.9346C24.4017 36.9844 24.1021 37.0343 23.8525 37.0343C22.754 37.0343 22.2548 36.5358 21.9053 36.1869C20.9081 35.1914 21.5157 33.6619 21.6362 33.3884C21.6449 33.3685 21.6303 33.3458 21.6085 33.3458C21.6066 33.3458 21.6047 33.3456 21.6029 33.3452L14.8634 32.0193C14.7982 32.0065 14.732 32 14.6656 32C14.6156 32 14.6156 32 14.5657 32C14.1663 32 13.8667 32.2991 13.8667 32.6978C13.8667 32.8972 13.9166 33.0467 14.0664 33.1963L14.1163 33.2461L29.9454 47.7066C29.9699 47.729 30.0101 47.7671 30.0337 47.7906C30.0361 47.793 30.0451 47.8015 30.0479 47.8034C30.1963 47.9021 30.3446 47.9999 30.493 47.9999C30.7427 47.9999 30.9424 47.9003 31.0422 47.7009L31.5415 46.9034L37.1835 37.5825C37.2834 37.433 37.3333 37.3333 37.3333 37.1838C37.3333 36.8548 37.2002 36.6588 37.0176 36.5121Z" fill="white"/>
<path d="M49.6532 16.0226C49.628 16.0155 49.6019 16.0135 49.5757 16.0135C49.5331 16.0135 49.4908 16.0049 49.4482 16.0013C49.3035 15.9889 49.135 16.0697 49.0448 16.113L24.8365 31.7702L23.0646 32.9029C23.0031 32.9423 22.9393 32.9659 22.8976 33.0259C22.8833 33.0464 22.8559 33.0692 22.8354 33.0834C22.5452 33.2852 22.4001 33.6229 22.4001 34.007C22.4001 34.6532 22.9704 35.1999 23.6443 35.1999C24.7847 35.1999 27.7913 34.007 27.9986 33.9076C29.2946 33.4105 30.5905 33.0129 31.6273 33.2117C31.8865 33.2614 35.6706 33.9573 37.1221 34.2555L38.3154 34.4939C38.3492 34.5007 38.3836 34.5041 38.418 34.5041C38.4699 34.5041 38.4699 34.5041 38.5217 34.5041C38.7648 34.5041 38.9623 34.4166 39.0715 34.2417C39.0859 34.2185 39.102 34.1962 39.1217 34.1773C39.1364 34.1632 39.1415 34.1596 39.1524 34.1425C39.4717 33.638 48.5461 19.3011 49.8694 17.1715C49.9799 16.9936 50.1334 16.8195 50.1334 16.61C50.1334 16.3737 49.899 16.0924 49.6532 16.0226Z" fill="white"/>
<defs>
<linearGradient id="paint0_linear_4885_6" x1="63.8861" y1="-1.97776e-05" x2="5.59591" y2="-4.73545" gradientUnits="userSpaceOnUse">
<stop stop-color="#C10505"/>
<stop offset="1" stop-color="#D51E33"/>
</linearGradient>
</defs>
</svg>
